<svg width="201" height="48" viewBox="0 0 201 48" fill="none" xmlns="http://www.w3.org/2000/svg">
<path d="M0.951298 33.5217C0.767176 33.0307 0.634199 32.4476 0.552366 31.7725C0.470534 31.0974 0.419389 30.4018 0.398931 29.6858C0.378473 28.9698 0.398931 28.3049 0.460305 27.6911C0.542137 27.0569 0.644428 26.5557 0.767176 26.1875C1.01267 26.1056 1.28885 25.942 1.59573 25.6965C1.92305 25.4305 2.19924 24.9702 2.42427 24.3156C2.66977 23.6609 2.79252 22.6994 2.79252 21.431C2.79252 20.2035 2.69023 19.2522 2.48565 18.5771C2.30153 17.902 2.05603 17.4212 1.74916 17.1348C1.44229 16.8484 1.11496 16.6847 0.767176 16.6438C0.583053 16.2142 0.450076 15.6721 0.368244 15.0174C0.286412 14.3423 0.245496 13.6467 0.245496 12.9307C0.265954 12.2147 0.327328 11.5293 0.429618 10.8747C0.531908 10.1995 0.685344 9.64717 0.889924 9.21756C1.38092 9.25847 2.01511 9.30962 2.79252 9.37099C3.56992 9.41191 4.39847 9.46305 5.27817 9.52443C6.17832 9.56534 7.04779 9.60626 7.88656 9.64717C8.72534 9.66763 9.46183 9.67786 10.096 9.67786C11.0166 9.67786 11.9679 9.6574 12.9499 9.61649C13.9524 9.55511 14.873 9.48351 15.7118 9.40168C16.571 9.31985 17.2563 9.25847 17.7678 9.21756C17.9519 9.64717 18.0747 10.22 18.136 10.936C18.2179 11.6521 18.2486 12.409 18.2281 13.2069C18.2076 13.9843 18.1565 14.731 18.0747 15.447C17.9928 16.1631 17.8701 16.7359 17.7064 17.1655C17.2154 17.1655 16.8472 17.3598 16.6017 17.7485C16.3766 18.1168 16.2232 18.6078 16.1414 19.2215C16.08 19.8353 16.0493 20.4899 16.0493 21.1855V24.3769H16.9392C16.8983 23.4154 16.8983 22.4846 16.9392 21.5844C17.0006 20.6843 17.0722 20.0398 17.154 19.6511C18.0951 19.4875 19.1589 19.3852 20.3455 19.3443C21.5525 19.2829 22.7595 19.2829 23.9666 19.3443C25.194 19.3852 26.2886 19.4875 27.2501 19.6511C27.3728 20.1831 27.4649 20.94 27.5263 21.922C27.6081 22.8835 27.649 23.9576 27.649 25.1441C27.6695 26.3102 27.6695 27.4661 27.649 28.6118C27.6286 29.7369 27.5774 30.7394 27.4956 31.6191C27.4342 32.4988 27.3524 33.133 27.2501 33.5217C25.2043 33.4808 23.0664 33.3887 20.8365 33.2455C18.627 33.1227 16.3664 33.0614 14.0547 33.0614C12.909 33.0614 11.6713 33.0716 10.3415 33.0921C9.03221 33.133 7.74336 33.1739 6.47496 33.2148C5.20657 33.2762 4.08137 33.3273 3.09939 33.3682C2.1174 33.4296 1.40137 33.4808 0.951298 33.5217ZM28.882 33.5217C28.7183 33.1125 28.5854 32.5908 28.4831 31.9566C28.3808 31.302 28.3194 30.6166 28.299 29.9006C28.299 29.1846 28.3194 28.5095 28.3603 27.8753C28.4217 27.2206 28.524 26.6887 28.6672 26.2795C28.9741 26.1568 29.2707 25.9624 29.5571 25.6965C29.8435 25.4305 30.0788 25.0316 30.2629 24.4997C30.4675 23.9678 30.5698 23.2415 30.5698 22.3209C30.5698 21.4208 30.447 20.7252 30.2015 20.2342C29.9765 19.7227 29.7106 19.3545 29.4037 19.1295C29.1173 18.884 28.8718 18.7101 28.6672 18.6078C28.4831 18.26 28.3501 17.769 28.2683 17.1348C28.1864 16.4802 28.1455 15.7744 28.1455 15.0174C28.166 14.2605 28.2273 13.5342 28.3296 12.8386C28.4319 12.1431 28.5854 11.5702 28.7899 11.1202C29.015 11.1406 29.2093 11.1713 29.373 11.2122C29.5367 11.2327 29.7208 11.2531 29.9254 11.2736C29.8435 12.542 30.0993 13.6365 30.6925 14.5571C31.2858 15.4573 32.0939 16.1017 33.1168 16.4904C34.1602 16.8791 35.2649 16.9609 36.431 16.7359C35.449 16.695 34.5386 16.4392 33.6999 15.9687C32.8815 15.4777 32.2167 14.8333 31.7052 14.0354C31.2142 13.2171 30.9687 12.3067 30.9687 11.3043C30.9687 10.4655 31.1631 9.6574 31.5518 8.88C31.9609 8.08214 32.636 7.42748 33.5771 6.91603C34.5182 6.38412 35.7866 6.11817 37.3823 6.11817C39.9396 6.11817 41.8012 6.76259 42.9673 8.05145C44.1539 9.31985 44.7472 11.202 44.7472 13.6979C44.7472 14.864 44.6449 15.938 44.4403 16.92C44.2562 17.8815 44.0619 18.8124 43.8573 19.7125C43.6731 20.5922 43.5811 21.4924 43.5811 22.413C43.5811 23.2927 43.6731 23.9985 43.8573 24.5304C44.0619 25.0623 44.3073 25.4612 44.5938 25.7272C44.9006 25.9727 45.1973 26.1568 45.4837 26.2795C45.6269 26.6887 45.719 27.2206 45.7599 27.8753C45.8212 28.5095 45.8417 29.1846 45.8212 29.9006C45.8212 30.6166 45.7701 31.302 45.6678 31.9566C45.5655 32.5908 45.4325 33.1125 45.2689 33.5217C44.6961 33.4603 43.9493 33.3887 43.0287 33.3069C42.1286 33.2455 41.1466 33.1841 40.0828 33.1227C39.019 33.0818 37.9551 33.0614 36.8913 33.0614C35.9093 33.0614 34.9069 33.0818 33.884 33.1227C32.8815 33.1841 31.9405 33.2455 31.0608 33.3069C30.1811 33.3887 29.4548 33.4603 28.882 33.5217ZM46.8883 33.5217C46.6838 32.867 46.5303 32.0896 46.428 31.1895C46.3462 30.2893 46.3257 29.3892 46.3667 28.489C46.4076 27.5889 46.5099 26.8421 46.6735 26.2489C47.1441 26.1261 47.5737 25.809 47.9624 25.2976C48.3511 24.7656 48.5454 23.886 48.5454 22.6585C48.5454 21.6151 48.4329 20.807 48.2079 20.2342C48.0033 19.6409 47.768 19.2215 47.5021 18.976C47.2361 18.7305 47.0009 18.5976 46.7963 18.5771C46.5917 17.902 46.4485 17.1041 46.3667 16.1835C46.3053 15.2424 46.3155 14.3116 46.3973 13.391C46.4996 12.4704 46.6735 11.7134 46.919 11.1202C47.8805 11.2429 48.9648 11.3452 50.1718 11.427C51.3789 11.4884 52.6166 11.5191 53.885 11.5191C55.1534 11.5191 56.4013 11.5089 57.6288 11.4884C58.8563 11.4475 59.8689 11.4066 60.6668 11.3656C60.4009 11.6521 60.1144 12.1431 59.8076 12.8386C59.5212 13.5137 59.2859 14.2298 59.1018 14.9867C58.9381 15.7437 58.887 16.4085 58.9483 16.9814C59.5007 15.1606 60.5543 13.6979 62.1091 12.5931C63.6639 11.4679 65.7813 10.9053 68.4613 10.9053C69.6274 10.9053 70.6196 11.0076 71.438 11.2122C72.2767 11.3963 72.9621 11.7441 73.494 12.2556C74.0463 12.767 74.476 13.5137 74.7828 14.4957C75.0693 15.3345 75.2022 16.1937 75.1818 17.0734C75.1613 17.9327 75.0999 18.8021 74.9976 19.6818C74.8954 20.5411 74.8442 21.4003 74.8442 22.2595C74.8442 23.2006 74.9363 23.9473 75.1204 24.4997C75.3045 25.0316 75.5398 25.4305 75.8262 25.6965C76.1331 25.9624 76.4297 26.1466 76.7161 26.2489C76.9002 26.8421 77.0025 27.5889 77.023 28.489C77.0639 29.3892 77.0434 30.2893 76.9616 31.1895C76.8798 32.0896 76.7366 32.867 76.532 33.5217C75.7546 33.4398 74.8135 33.3376 73.7088 33.2148C72.6041 33.1125 71.2129 33.0614 69.5354 33.0614C68.0215 33.0614 66.6099 33.1125 65.3005 33.2148C64.0117 33.3376 62.999 33.4398 62.2625 33.5217C62.1602 32.9693 62.0784 32.2431 62.017 31.3429C61.9557 30.4223 61.9352 29.471 61.9557 28.489C61.9966 27.507 62.0784 26.658 62.2012 25.942V21.7072H61.0657V25.942C61.2089 26.658 61.2908 27.507 61.3112 28.489C61.3521 29.471 61.3419 30.4223 61.2805 31.3429C61.2192 32.2431 61.1169 32.9693 60.9737 33.5217C60.4827 33.4603 59.9405 33.3887 59.3473 33.3069C58.7744 33.2455 58.0686 33.1841 57.2299 33.1227C56.3911 33.0818 55.3477 33.0614 54.0998 33.0614C52.5654 33.0614 51.1845 33.1125 49.957 33.2148C48.75 33.3171 47.7271 33.4194 46.8883 33.5217ZM78.2689 33.5217C78.1053 33.1125 77.9723 32.5908 77.87 31.9566C77.7677 31.302 77.7063 30.6166 77.6859 29.9006C77.6859 29.1846 77.7063 28.5095 77.7473 27.8753C77.8086 27.2206 77.9109 26.6887 78.0541 26.2795C78.361 26.1568 78.6576 25.9522 78.944 25.6658C79.2305 25.3589 79.4657 24.8475 79.6499 24.1315C79.834 23.395 79.926 22.3414 79.926 20.9707C79.926 19.5591 79.8135 18.5055 79.5885 17.8099C79.3839 17.1143 79.1282 16.6336 78.8213 16.3676C78.5349 16.0812 78.2792 15.8869 78.0541 15.7846C77.87 15.4368 77.737 14.9458 77.6552 14.3116C77.5734 13.6569 77.5324 12.9511 77.5324 12.1942C77.5529 11.4373 77.6143 10.711 77.7166 10.0154C77.8189 9.31985 77.9723 8.74702 78.1769 8.29694C78.7702 8.33786 79.5066 8.39924 80.3863 8.48107C81.266 8.5629 82.2173 8.6345 83.2402 8.69588C84.2836 8.73679 85.2963 8.75725 86.2782 8.75725C87.7308 8.75725 89.0503 8.71633 90.2369 8.6345C91.4439 8.53221 92.477 8.44015 93.3363 8.35832C93.5204 8.93114 93.6534 9.48351 93.7352 10.0154C93.817 10.5269 93.8579 11.0485 93.8579 11.5805C93.8579 12.3374 93.7557 13.2069 93.5511 14.1889C93.367 15.1708 93.1726 16.1528 92.968 17.1348C92.7634 18.1168 92.6611 18.9965 92.6611 19.7739V20.3263C93.3363 19.3443 93.8375 18.1066 94.1648 16.6131C94.5126 15.0992 94.666 13.2376 94.6251 11.0281C95.1979 11.069 95.8117 11.1304 96.4663 11.2122C97.1415 11.294 97.97 11.3656 98.952 11.427C99.934 11.4884 101.161 11.5191 102.634 11.5191C103.841 11.5191 104.834 11.4884 105.611 11.427C106.388 11.3656 107.064 11.3043 107.636 11.2429C108.23 11.1611 108.864 11.0895 109.539 11.0281C109.703 11.4577 109.836 11.9998 109.938 12.6545C110.04 13.2887 110.091 13.9638 110.091 14.6798C110.112 15.3959 110.091 16.0812 110.03 16.7359C109.989 17.3701 109.897 17.902 109.754 18.3316C108.731 18.618 107.851 18.9351 107.115 19.2829C106.399 19.6307 105.754 20.0092 105.181 20.4183C105.693 21.9731 106.399 23.2108 107.299 24.1315C108.219 25.0316 109.191 25.7476 110.214 26.2795C110.357 26.6887 110.449 27.2104 110.49 27.8446C110.552 28.4788 110.572 29.1539 110.552 29.8699C110.552 30.5655 110.501 31.2406 110.398 31.8953C110.296 32.5499 110.163 33.0921 109.999 33.5217C109.161 33.4398 108.23 33.3376 107.207 33.2148C106.184 33.0921 104.916 33.0307 103.402 33.0307C101.724 33.0307 100.353 33.0614 99.2895 33.1227C98.2257 33.1841 97.346 33.2455 96.6505 33.3069C95.9753 33.3887 95.3514 33.4603 94.7786 33.5217C94.8399 32.7852 94.8911 32.1101 94.932 31.4963C94.9729 30.8621 94.9934 30.2791 94.9934 29.7472C94.9934 28.8879 94.9524 28.1003 94.8706 27.3843C94.7888 26.6682 94.5842 25.9931 94.2569 25.3589C93.9295 24.7247 93.3976 24.111 92.6611 23.5177V26.2795H93.7659C93.9091 26.6887 94.0011 27.2206 94.0421 27.8753C94.1034 28.5095 94.1239 29.1846 94.1034 29.9006C94.1034 30.6166 94.0523 31.302 93.95 31.9566C93.8477 32.5908 93.7147 33.1125 93.5511 33.5217C92.6918 33.4398 91.6178 33.3376 90.3289 33.2148C89.0605 33.1125 87.7103 33.0614 86.2782 33.0614C85.2963 33.0614 84.2938 33.0818 83.2709 33.1227C82.2685 33.1841 81.3274 33.2455 80.4477 33.3069C79.568 33.3887 78.8418 33.4603 78.2689 33.5217ZM125.288 33.5217C125.125 33.1125 124.992 32.5908 124.889 31.9566C124.787 31.302 124.726 30.6166 124.705 29.9006C124.705 29.1846 124.726 28.5095 124.767 27.8753C124.828 27.2206 124.93 26.6887 125.074 26.2795C125.38 26.1568 125.677 25.9522 125.964 25.6658C126.25 25.3589 126.485 24.8373 126.669 24.1008C126.853 23.3643 126.946 22.3107 126.946 20.94C126.946 19.5284 126.833 18.4748 126.608 17.7792C126.403 17.0632 126.148 16.5722 125.841 16.3063C125.554 16.0198 125.299 15.8255 125.074 15.7232C124.889 15.3754 124.756 14.8844 124.675 14.2502C124.593 13.5956 124.552 12.9 124.552 12.1635C124.572 11.4066 124.634 10.6905 124.736 10.0154C124.838 9.31985 124.992 8.74702 125.196 8.29694C125.79 8.35832 126.526 8.42992 127.406 8.51175C128.286 8.57313 129.237 8.6345 130.26 8.69588C131.303 8.73679 132.316 8.75725 133.298 8.75725C134.75 8.75725 136.07 8.71633 137.256 8.6345C138.463 8.53221 139.496 8.44015 140.356 8.35832C140.54 8.93114 140.673 9.48351 140.755 10.0154C140.836 10.5269 140.877 11.0485 140.877 11.5805C140.877 12.542 140.775 13.4933 140.571 14.4344C140.386 15.355 140.192 16.3574 139.987 17.4417C139.803 18.5055 139.711 19.7534 139.711 21.1855C139.711 22.4744 139.803 23.4666 139.987 24.1621C140.172 24.8577 140.407 25.3589 140.693 25.6658C140.98 25.9522 141.276 26.1568 141.583 26.2795C141.767 26.9137 141.88 27.7014 141.921 28.6424C141.962 29.5631 141.931 30.4734 141.829 31.3736C141.747 32.2533 141.593 32.9693 141.368 33.5217C140.796 33.4603 140.059 33.3887 139.159 33.3069C138.259 33.2455 137.297 33.1841 136.274 33.1227C135.251 33.0818 134.259 33.0614 133.298 33.0614C132.316 33.0614 131.313 33.0818 130.29 33.1227C129.288 33.1841 128.347 33.2455 127.467 33.3069C126.587 33.3887 125.861 33.4603 125.288 33.5217ZM155.839 34.074C146.489 34.074 141.815 30.2689 141.815 22.6585C141.815 18.5055 142.991 15.4573 145.344 13.5137C147.717 11.5702 151.266 10.5985 155.992 10.5985C161.004 10.5985 164.646 11.56 166.917 13.4831C169.208 15.3856 170.354 18.1986 170.354 21.922C170.354 26.1159 169.147 29.1948 166.733 31.1588C164.319 33.1023 160.687 34.074 155.839 34.074ZM155.256 24.0087H156.913V20.6638H155.256V24.0087ZM179.658 38.3089C176.896 38.3089 174.758 37.7769 173.244 36.7131C171.73 35.6493 170.973 33.8899 170.973 31.435C170.973 30.4121 171.168 29.3892 171.557 28.3663C171.966 27.3434 172.569 26.4534 173.367 25.6965C174.41 26.433 175.74 27.0058 177.356 27.415L177.602 26.5557C175.842 26.1056 174.482 25.4919 173.52 24.7145C172.559 23.9371 171.894 23.0472 171.526 22.0447C171.158 21.0423 170.973 19.9989 170.973 18.9147C170.973 17.4417 171.331 16.0914 172.048 14.864C172.764 13.616 173.858 12.6136 175.331 11.8566C176.804 11.0997 178.676 10.7212 180.947 10.7212C182.154 10.7212 183.146 10.8542 183.923 11.1202C184.701 11.3861 185.325 11.7237 185.795 12.1328C186.266 12.5215 186.603 12.9409 186.808 13.391C187.013 11.7339 187.473 10.3734 188.189 9.30962C188.925 8.2458 189.836 7.45817 190.92 6.94672C192.004 6.41481 193.181 6.14885 194.449 6.14885C195.513 6.14885 196.474 6.38412 197.334 6.85465C198.193 7.30473 198.868 7.95939 199.359 8.81862C199.87 9.67786 200.126 10.7212 200.126 11.9487C200.126 13.1557 199.901 14.1582 199.451 14.956C199.021 15.7539 198.438 16.3574 197.702 16.7666C196.965 17.1553 196.147 17.3496 195.247 17.3496C194.429 17.3496 193.692 17.2882 193.037 17.1655C192.383 17.0223 191.81 16.8382 191.319 16.6131L190.889 17.3803C191.258 17.5849 191.687 17.7485 192.178 17.8713C192.956 18.0963 193.733 18.2395 194.51 18.3009C195.288 18.3623 196.014 18.4134 196.689 18.4543C197.364 18.4748 197.958 18.5669 198.469 18.7305C199.001 18.8942 199.41 19.1908 199.697 19.6205C200.003 20.0501 200.157 20.6945 200.157 21.5537C200.157 22.8631 199.635 23.9576 198.592 24.8373C197.569 25.6965 196.168 26.3511 194.388 26.8012C192.608 27.2308 190.582 27.4968 188.312 27.5991L188.342 28.489C189.836 28.4685 191.196 28.4788 192.424 28.5197C193.672 28.5606 194.776 28.7243 195.738 29.0107C196.699 29.2971 197.508 29.7779 198.162 30.453C198.817 31.1281 199.308 32.0692 199.635 33.2762C199.983 34.5037 200.157 36.0687 200.157 37.9713C199.032 38.2373 197.825 38.3702 196.536 38.3702C195.267 38.3907 194.04 38.2782 192.853 38.0327C192.424 37.7258 191.82 37.5621 191.043 37.5417C190.286 37.5212 189.355 37.5724 188.25 37.6951C187.146 37.8383 185.877 37.9713 184.445 38.094C183.013 38.2373 181.417 38.3089 179.658 38.3089ZM184.752 19.6205H186.378V17.2576H184.752V19.6205Z" fill="#1340A2"/>
<path d="M117.567 21.4809L119.856 25.235L124.133 26.2519L121.27 29.5889L121.625 33.9714L117.567 32.2797L113.508 33.9714L113.863 29.5889L111 26.2519L115.278 25.235L117.567 21.4809Z" fill="#1340A2"/>
<path d="M156.378 18L157.904 20.5027L160.756 21.1806L158.847 23.4053L159.083 26.327L156.378 25.1992L153.672 26.327L153.909 23.4053L152 21.1806L154.852 20.5027L156.378 18Z" fill="white"/>
<path d="M61.6031 19.1794L63.129 21.6821L65.9808 22.36L64.0721 24.5847L64.3087 27.5064L61.6031 26.3786L58.8974 27.5064L59.134 24.5847L57.2253 22.36L60.0771 21.6821L61.6031 19.1794Z" fill="white"/>
<path d="M34.3015 15L35.0645 16.2514L36.4904 16.5903L35.5361 17.7026L35.6543 19.1635L34.3015 18.5996L32.9487 19.1635L33.067 17.7026L32.1126 16.5903L33.5385 16.2514L34.3015 15Z" fill="white"/>
<path d="M186 15L186.995 16.6311L188.853 17.0729L187.609 18.5229L187.763 20.4271L186 19.692L184.237 20.4271L184.391 18.5229L183.147 17.0729L185.005 16.6311L186 15Z" fill="white"/>
</svg>
