<?xml version="1.0" standalone="no"?>
<!DOCTYPE svg PUBLIC "-//W3C//DTD SVG 20010904//EN"
 "http://www.w3.org/TR/2001/REC-SVG-20010904/DTD/svg10.dtd">
<svg version="1.0" xmlns="http://www.w3.org/2000/svg"
 width="2052.000000pt" height="377.000000pt" viewBox="0 0 2052.000000 377.000000"
 preserveAspectRatio="xMidYMid meet">

<g transform="translate(0.000000,377.000000) scale(0.100000,-0.100000)"
fill="#000000" stroke="none">
<path d="M11110 3760 c-14 -4 -92 -38 -175 -75 -203 -92 -394 -162 -674 -246
-330 -99 -328 -97 -355 -233 -22 -109 -77 -268 -125 -363 -46 -92 -143 -239
-200 -303 l-40 -45 -2 75 c-6 263 27 511 92 702 30 86 80 195 112 242 34 49
34 86 1 125 -35 42 -74 41 -177 -5 -265 -117 -541 -212 -805 -278 -228 -57
-327 -69 -493 -64 -118 4 -145 8 -229 37 -52 18 -116 46 -142 62 -60 39 -111
37 -141 -3 -19 -26 -20 -32 -8 -80 7 -29 32 -87 56 -128 41 -73 107 -214 158
-335 125 -301 181 -706 147 -1056 -25 -248 -69 -434 -187 -794 -86 -262 -93
-304 -50 -341 19 -16 40 -24 67 -24 33 0 47 7 87 47 145 141 384 219 704 230
264 9 442 -30 621 -138 96 -58 139 -64 182 -24 20 19 26 33 26 68 0 48 -59
271 -115 436 -38 114 -42 136 -20 107 55 -73 206 -233 289 -307 118 -105 212
-172 321 -228 113 -57 356 -138 442 -146 l71 -7 69 63 c37 36 109 98 158 139
106 87 390 364 446 433 42 53 51 105 24 140 -8 11 -103 50 -237 97 -123 43
-258 92 -300 109 -188 75 -383 189 -502 294 l-48 42 118 90 c308 231 558 551
760 970 147 304 228 621 177 684 -22 26 -69 40 -103 31z m-135 -377 c-72 -213
-270 -576 -418 -766 -144 -184 -316 -343 -521 -480 -124 -84 -133 -92 -139
-124 -8 -44 12 -82 63 -116 27 -18 86 -66 133 -107 184 -164 401 -280 747
-400 69 -24 128 -46 132 -50 11 -8 -221 -233 -375 -363 l-127 -109 -128 43
c-241 80 -389 174 -587 374 -137 138 -252 285 -412 527 -68 104 -133 192 -143
198 -38 20 -90 12 -122 -20 -29 -30 -30 -33 -24 -93 9 -72 89 -355 187 -655
38 -118 69 -217 69 -222 0 -4 -29 3 -65 16 -284 103 -682 95 -1016 -22 -54
-19 -100 -34 -102 -34 -2 0 10 39 25 87 235 715 204 1424 -86 2000 -20 40 -36
74 -36 76 0 2 39 -5 88 -15 275 -56 651 6 1169 193 89 33 166 59 172 59 6 0 2
-24 -10 -57 -79 -229 -117 -534 -99 -794 13 -191 20 -236 44 -271 40 -59 119
-54 160 10 13 20 45 57 71 82 190 183 333 415 416 674 23 72 45 140 49 151 6
15 31 27 102 48 275 79 588 187 736 252 43 19 78 30 80 25 2 -5 -13 -58 -33
-117z"/>
<path d="M1414 3737 c-11 -7 -54 -45 -95 -85 -107 -105 -233 -191 -404 -277
-238 -118 -409 -165 -599 -165 -55 1 -128 7 -161 15 -79 19 -78 19 -114 -11
-47 -40 -44 -86 11 -145 102 -108 238 -383 288 -582 43 -172 53 -282 47 -505
-11 -380 -71 -750 -177 -1077 -72 -223 -74 -272 -15 -311 37 -24 85 -11 161
47 300 227 637 339 1106 369 352 23 702 -37 1025 -174 105 -44 169 -31 199 40
12 28 13 72 8 227 -17 484 69 1044 240 1573 50 153 54 188 31 222 -17 24 -67
41 -103 34 -13 -3 -66 -53 -127 -121 -294 -327 -656 -590 -1050 -761 -119 -52
-444 -165 -451 -157 -2 2 12 82 31 178 54 268 140 737 185 1014 23 138 54 319
71 402 16 84 29 164 29 179 0 59 -82 102 -136 71z m-163 -691 c-49 -286 -120
-670 -182 -984 -16 -84 -41 -188 -55 -232 -23 -73 -23 -82 -10 -114 29 -70 67
-72 280 -11 509 147 951 381 1304 693 39 35 72 59 72 54 0 -5 -13 -65 -30
-133 -84 -354 -120 -639 -127 -1000 l-6 -275 -111 38 c-219 74 -450 115 -711
124 -413 15 -803 -65 -1145 -235 l-116 -57 38 147 c95 372 149 916 119 1194
-28 253 -113 515 -231 707 -17 26 -30 50 -30 52 0 1 42 6 93 9 232 16 524 124
797 296 81 51 95 57 98 41 2 -10 -20 -151 -47 -314z"/>
<path d="M19479 3716 c-3 -4 -109 -8 -235 -11 l-229 -4 -22 -26 c-38 -43 -31
-90 25 -176 61 -94 112 -185 112 -200 0 -7 -9 -9 -22 -5 -13 4 -88 18 -168 33
-129 24 -170 26 -380 27 -185 0 -254 -4 -325 -18 -276 -54 -444 -143 -624
-331 -113 -119 -192 -231 -250 -356 -146 -311 -129 -718 41 -1016 l49 -85 -84
-87 c-138 -141 -195 -249 -218 -415 -15 -104 -1 -223 37 -324 70 -188 229
-323 450 -384 119 -33 387 -31 663 5 299 39 463 36 577 -13 91 -39 165 -135
146 -189 -6 -15 -8 -40 -5 -55 6 -30 56 -76 83 -76 10 0 70 13 132 29 253 65
504 94 784 89 208 -3 211 -3 241 55 13 27 14 52 4 204 -26 386 -101 614 -258
784 -98 105 -241 193 -413 253 -41 15 -81 29 -89 31 -8 3 22 28 72 59 171 108
303 231 375 350 72 117 173 387 207 551 10 50 20 167 25 310 10 250 18 311 57
419 55 152 128 271 217 352 49 45 56 57 56 89 0 75 -24 92 -160 112 -99 15
-859 31 -871 19z m726 -198 c4 -4 -7 -27 -25 -53 -46 -66 -104 -188 -135 -277
-36 -109 -53 -241 -60 -457 -7 -214 -21 -299 -76 -466 -59 -176 -128 -310
-200 -389 -142 -155 -344 -271 -534 -306 -158 -30 -181 -37 -204 -67 -12 -14
-21 -40 -21 -57 0 -67 58 -106 156 -106 118 0 374 -67 529 -140 285 -133 389
-326 430 -802 l6 -68 -85 0 c-213 0 -506 -31 -679 -71 -49 -12 -89 -19 -91
-17 -1 1 -11 23 -22 48 -29 69 -126 160 -214 203 -174 85 -323 95 -695 47
-485 -63 -656 -40 -816 108 -93 85 -129 173 -129 313 0 96 26 185 78 265 40
61 155 176 229 229 46 33 63 61 63 103 0 36 -22 66 -59 82 -88 36 -179 271
-197 510 -12 162 41 363 138 521 97 158 342 373 484 425 90 33 200 54 351 65
228 17 466 -11 748 -87 144 -39 169 -38 202 12 33 51 11 142 -82 326 -25 49
-44 92 -41 95 17 18 934 28 951 11z"/>
<path d="M18980 2893 c-53 -19 -60 -56 -34 -157 32 -121 1 -267 -71 -335 -43
-40 -47 -86 -12 -119 35 -33 71 -28 141 23 131 93 201 106 304 55 60 -30 108
-77 147 -142 27 -43 84 -52 121 -17 32 30 30 64 -6 141 -25 52 -30 76 -30 136
0 88 40 202 95 271 41 52 44 83 10 116 -31 32 -46 31 -125 -6 -111 -52 -173
-69 -258 -69 -98 0 -167 22 -187 59 -7 15 -25 32 -40 39 -28 13 -32 13 -55 5z
m181 -210 c31 -11 77 -16 152 -17 93 0 107 -2 102 -16 -4 -8 -11 -37 -17 -65
-6 -27 -14 -53 -17 -57 -4 -4 -36 2 -71 13 -50 16 -81 20 -132 15 l-68 -5 0
75 c0 41 2 74 4 74 2 0 23 -7 47 -17z"/>
<path d="M3375 3635 c-41 -40 -33 -95 25 -162 32 -36 70 -130 70 -173 0 -62
-62 -179 -157 -296 -40 -50 -45 -102 -11 -134 30 -27 61 -25 144 10 129 54
270 58 363 11 23 -12 70 -51 105 -86 66 -69 86 -76 135 -51 27 14 51 53 51 83
0 8 -13 39 -29 67 -42 72 -56 166 -36 234 17 57 85 138 165 197 59 43 76 82
56 130 -26 61 -66 67 -178 26 -207 -76 -398 -34 -561 123 -57 55 -102 62 -142
21z m436 -361 l77 -6 -19 -42 c-10 -24 -21 -68 -25 -100 -6 -47 -10 -56 -23
-51 -29 11 -113 25 -152 25 l-39 0 0 108 0 109 53 -18 c28 -10 86 -21 128 -25z"/>
<path d="M12942 3608 c-18 -18 -16 -30 34 -219 25 -96 63 -241 85 -324 80
-307 111 -515 130 -861 27 -516 -55 -941 -258 -1348 -62 -125 -65 -131 -54
-168 8 -26 21 -43 43 -54 38 -20 72 -14 135 25 137 84 487 178 747 201 140 12
285 1 398 -31 93 -27 160 -34 188 -19 29 15 60 69 60 103 0 29 -9 45 -135 252
-175 288 -295 629 -349 995 -56 374 -38 833 40 1009 14 31 36 67 48 81 13 14
29 35 35 48 18 34 -3 88 -41 108 -27 14 -40 14 -147 -2 -309 -48 -611 -3 -772
116 -138 102 -162 113 -187 88z m246 -317 c18 -6 110 -24 205 -42 131 -24 202
-32 299 -33 71 -1 128 -4 128 -7 0 -3 -6 -28 -14 -55 -45 -152 -51 -219 -51
-549 0 -256 4 -344 18 -440 64 -420 176 -761 352 -1063 l37 -63 -29 8 c-54 15
-362 8 -478 -11 -124 -20 -288 -57 -385 -87 -36 -11 -72 -22 -81 -25 -13 -4
-8 18 23 103 54 145 101 337 129 524 20 133 23 191 23 429 0 447 -51 767 -195
1216 -16 50 -29 94 -29 98 0 8 9 8 48 -3z"/>
<path d="M5950 3506 c-14 -7 -63 -37 -110 -66 -166 -101 -492 -241 -675 -290
-113 -29 -256 -50 -352 -50 -77 0 -84 -2 -99 -25 -15 -22 -15 -32 -4 -68 22
-75 47 -140 103 -267 73 -165 122 -309 149 -434 30 -138 33 -513 5 -679 -38
-226 -99 -440 -199 -701 -54 -141 -56 -171 -11 -206 37 -29 84 -25 139 10 56
35 138 63 253 86 64 12 119 15 235 12 183 -6 304 -31 574 -120 166 -54 186
-59 213 -48 67 28 74 77 29 215 -95 297 -104 590 -29 895 15 63 41 153 57 200
l29 85 11 -35 c20 -62 52 -229 83 -440 38 -258 47 -487 27 -650 -18 -143 -10
-242 21 -274 39 -38 90 -29 239 47 193 98 261 119 407 124 90 3 147 0 229 -15
192 -34 210 -18 219 206 4 82 25 291 47 465 21 174 44 387 51 474 23 333 -20
672 -120 936 -104 275 -323 480 -567 532 -245 52 -522 -31 -772 -233 -24 -19
-46 -32 -49 -29 -3 4 -1 67 6 141 11 144 10 158 -22 194 -24 26 -78 30 -117 8z
m-62 -373 c-4 -65 -12 -149 -17 -186 -15 -106 15 -157 90 -157 28 0 45 14 128
101 152 161 311 272 466 325 109 38 267 40 365 6 390 -135 556 -704 450 -1542
-11 -85 -28 -225 -39 -310 -11 -85 -23 -202 -27 -259 l-7 -103 -36 6 c-203 34
-419 4 -609 -85 l-84 -38 6 37 c30 210 2 553 -80 976 -40 202 -120 433 -168
481 -47 47 -128 29 -162 -36 -25 -49 -131 -339 -158 -435 -91 -318 -106 -599
-46 -891 11 -53 20 -101 20 -108 0 -9 -26 -4 -92 16 -51 16 -149 42 -218 56
-111 24 -147 27 -320 27 -152 0 -210 -3 -263 -17 -99 -25 -98 -25 -76 32 95
250 169 649 169 909 0 300 -56 541 -197 847 -35 77 -67 146 -70 153 -4 9 10
12 50 12 183 0 491 92 797 239 69 33 127 60 130 60 3 1 2 -52 -2 -116z"/>
<path d="M15605 3223 c-16 -2 -68 -12 -115 -23 -47 -10 -121 -26 -164 -34
-139 -27 -289 -112 -414 -235 -415 -409 -453 -1211 -84 -1771 112 -169 310
-345 478 -425 379 -179 881 -161 1235 45 518 303 653 941 339 1598 -161 336
-381 574 -666 719 -204 104 -422 149 -609 126z m311 -218 c438 -111 803 -544
914 -1085 32 -152 30 -331 -3 -461 -105 -407 -468 -652 -962 -651 -483 1 -870
291 -1024 767 -57 176 -66 242 -66 465 0 179 3 216 23 293 57 228 158 397 310
523 36 30 74 54 84 54 11 0 74 18 142 40 207 67 261 79 377 79 82 1 129 -5
205 -24z"/>
<path d="M15191 2774 c-34 -43 -28 -96 15 -144 36 -39 37 -42 31 -100 -7 -80
-35 -130 -118 -216 -62 -65 -69 -76 -69 -112 0 -33 6 -45 31 -66 35 -30 62
-32 104 -10 41 22 152 29 226 15 88 -18 155 -51 222 -110 68 -60 111 -68 152
-27 41 41 42 73 8 136 -93 169 -88 281 20 410 72 88 80 127 34 178 -29 32 -79
29 -136 -7 -123 -79 -271 -63 -372 40 -33 34 -44 39 -83 39 -36 0 -48 -5 -65
-26z m307 -281 c53 -5 62 -9 56 -22 -3 -9 -9 -51 -12 -94 -4 -65 -7 -77 -20
-72 -8 3 -47 11 -86 17 -39 7 -72 13 -74 14 -2 1 4 26 12 55 9 29 16 68 16 87
0 31 2 34 23 28 12 -3 50 -9 85 -13z"/>
<path d="M4130 2599 c-120 -47 -338 -116 -422 -133 -118 -24 -180 -22 -211 9
-14 15 -40 28 -59 31 -75 12 -95 -49 -73 -218 8 -62 20 -180 26 -262 31 -424
-81 -820 -298 -1056 -70 -76 -81 -102 -60 -152 23 -54 62 -66 151 -44 435 107
714 144 925 126 86 -8 110 -14 141 -35 50 -35 85 -32 126 9 50 50 42 108 -23
179 -82 89 -194 319 -234 479 -68 277 -9 681 132 899 54 83 60 102 48 139 -11
29 -53 61 -81 59 -7 0 -47 -13 -88 -30z m-120 -235 c0 -4 -13 -48 -30 -99 -57
-181 -74 -283 -74 -475 -1 -131 4 -196 17 -257 22 -104 78 -266 123 -354 19
-38 34 -70 34 -72 0 -2 -64 -7 -142 -10 -148 -7 -352 -34 -496 -66 -45 -10
-81 -15 -80 -12 2 3 24 49 50 101 155 318 195 726 112 1143 l-6 27 77 0 c81 0
231 27 330 59 66 21 85 24 85 15z"/>
<path d="M11824 2407 c-25 -22 -27 -30 -35 -152 -9 -126 -35 -365 -41 -370 -2
-1 -54 8 -116 21 -62 12 -182 30 -266 39 -135 15 -157 15 -188 2 -67 -28 -75
-107 -16 -156 18 -14 90 -82 162 -150 71 -68 158 -146 193 -174 35 -28 63 -56
63 -63 0 -6 -7 -31 -16 -55 -30 -85 -104 -405 -104 -452 0 -62 31 -97 87 -97
31 0 45 8 83 45 25 24 101 89 170 143 l125 100 139 -141 c249 -249 291 -273
357 -208 37 38 38 80 5 257 -13 71 -32 187 -41 257 l-17 128 60 54 c131 119
226 198 292 242 96 63 113 122 51 177 -20 18 -35 19 -308 12 l-288 -6 -53 132
c-29 73 -76 192 -103 263 -32 83 -59 138 -75 153 -33 29 -85 29 -120 -1z m173
-627 c10 -44 24 -73 41 -89 l26 -24 175 7 c203 9 198 19 51 -109 -54 -47 -103
-98 -109 -114 -10 -23 -8 -59 9 -187 11 -88 23 -167 26 -176 3 -10 1 -18 -4
-18 -12 0 -154 148 -178 185 -27 43 -44 54 -84 55 -39 0 -55 -9 -157 -92 -38
-32 -73 -58 -75 -58 -3 0 10 53 28 117 38 132 43 200 17 231 -10 12 -52 47
-94 79 -83 63 -173 143 -167 148 5 5 186 -31 248 -49 73 -22 104 -20 135 7 22
19 29 37 41 117 7 52 14 102 15 110 1 25 40 -71 56 -140z"/>
</g>
</svg>
