<svg width="40" height="40" xmlns="http://www.w3.org/2000/svg" stroke="null">
 <g stroke="null">
  <title stroke="null">Layer 1</title>
  <g stroke="null">
   <g stroke="null" stroke-width="0" id="svg_10"/>
   <g stroke="null" stroke-linejoin="round" stroke-linecap="round" id="svg_9"/>
   <g stroke="null">
    <g stroke="null" stroke-width="0" id="svg_16"/>
    <g stroke="null" stroke-linejoin="round" stroke-linecap="round" id="svg_15"/>
    <g stroke="null" id="svg_14">
     <path stroke="null" fill="#1340A2" d="m14.44027,7.0682c2.47367,-4.43757 3.71047,-6.65636 5.55971,-6.65636c1.84924,0 3.08604,2.21877 5.55963,6.65634l0.63998,1.14806c0.70306,1.26101 1.05439,1.89154 1.60258,2.30755c0.54799,0.41602 1.23035,0.57043 2.59546,0.87929l1.24285,0.28118c4.80345,1.08687 7.20537,1.63029 7.7768,3.46784c0.57143,1.83746 -1.06591,3.75232 -4.3408,7.58165l-0.84719,0.99073c-0.93058,1.08818 -1.39596,1.63227 -1.60532,2.30545c-0.20916,0.67318 -0.13885,1.39909 0.00176,2.8511l0.12811,1.32175c0.49507,5.10928 0.7427,7.66392 -0.75325,8.79956c-1.49615,1.13563 -3.74496,0.10019 -8.24258,-1.97052l-1.16356,-0.53589c-1.278,-0.58842 -1.91701,-0.88273 -2.59448,-0.88273c-0.67747,0 -1.31648,0.29431 -2.59448,0.88273l-1.16356,0.53589c-4.49766,2.0707 -6.74647,3.10615 -8.24248,1.97052c-1.49601,-1.13563 -1.24846,-3.69028 -0.75335,-8.79956l0.12807,-1.32175c0.14071,-1.45201 0.21105,-2.17792 0.00172,-2.8511c-0.20932,-0.67318 -0.6746,-1.21727 -1.6052,-2.30545l-0.84722,-0.99073c-3.27479,-3.82932 -4.91219,-5.74418 -4.34076,-7.58165c0.57143,-1.83754 2.97323,-2.38097 7.77684,-3.46784l1.24275,-0.28118c1.36503,-0.30886 2.04754,-0.46328 2.59555,-0.87929c0.54801,-0.41602 0.8995,-1.04652 1.60245,-2.30755l0.63996,-1.14804z"/>
    </g>
   </g>
  </g>
 </g>

</svg>