<svg width="44" height="42" xmlns="http://www.w3.org/2000/svg" style="vector-effect: non-scaling-stroke;" stroke="null">
 <g stroke="null">
  <title stroke="null">Layer 1</title>
  <g stroke="null" id="svg_1" stroke-width="0">
   <path stroke="null" id="svg_2" d="m-363.27703,40.00112c-0.60853,-1.6228 -1.04806,-3.55002 -1.31851,-5.78129c-0.27048,-2.23127 -0.4395,-4.53032 -0.50712,-6.89678c-0.06762,-2.36646 0,-4.56403 0.20286,-6.59271c0.27045,-2.09611 0.60853,-3.75262 1.01425,-4.96956c0.81136,-0.27069 1.72418,-0.81141 2.73845,-1.6228c1.08184,-0.87916 1.99466,-2.40051 2.73842,-4.56403c0.81141,-2.16386 1.21711,-5.34171 1.21711,-9.53394c0,-4.05701 -0.33807,-7.20118 -1.01425,-9.43245c-0.60853,-2.23127 -1.41994,-3.82037 -2.43419,-4.76697c-1.01425,-0.94657 -2.09611,-1.48764 -3.24555,-1.6228c-0.60858,-1.41989 -1.04806,-3.21158 -1.31854,-5.37544c-0.27045,-2.23127 -0.40567,-4.53032 -0.40567,-6.89678c0.06759,-2.36646 0.27045,-4.63178 0.60853,-6.7953c0.33807,-2.23162 0.84517,-4.05712 1.52134,-5.47703c1.6228,0.13521 3.71889,0.30426 6.28831,0.5071c2.5694,0.13524 5.30785,0.30426 8.21535,0.50712c2.97509,0.13521 5.84878,0.27045 8.62101,0.40567c2.77226,0.06762 5.20644,0.10143 7.30245,0.10143c3.04269,0 6.18683,-0.06762 9.43245,-0.20283c3.31338,-0.20286 6.35606,-0.4395 9.12837,-0.70998c2.83975,-0.27045 5.10475,-0.47331 6.7953,-0.60853c0.60847,1.41991 1.01435,3.31317 1.21695,5.67963c0.27069,2.3668 0.37215,4.86842 0.3044,7.50557c-0.06775,2.5694 -0.23664,5.03732 -0.50699,7.40378c-0.27069,2.3668 -0.67623,4.25995 -1.21726,5.67984c-1.6228,0 -2.83975,0.64218 -3.65116,1.92688c-0.74398,1.21726 -1.25099,2.84009 -1.52134,4.86842c-0.20294,2.02868 -0.3044,4.1922 -0.3044,6.49125l0,10.54792l2.94123,0c-0.13519,-3.17787 -0.13519,-6.25426 0,-9.22951c0.20294,-2.97493 0.43958,-5.10507 0.70993,-6.38977c3.11044,-0.54072 6.62641,-0.87882 10.54826,-1.01401c3.98926,-0.20294 7.97855,-0.20294 11.96815,0c4.05669,0.13519 7.67447,0.47329 10.85234,1.01401c0.40554,1.75833 0.70993,4.25995 0.91287,7.50557c0.27035,3.17787 0.40554,6.72789 0.40554,10.6494c0.06775,3.8541 0.06775,7.67447 0,11.46113c-0.06744,3.71857 -0.23664,7.03195 -0.50699,9.93947c-0.20294,2.9075 -0.47329,5.00361 -0.81141,6.28831c-6.7616,-0.13519 -13.82759,-0.43958 -21.19766,-0.91287c-7.30264,-0.40588 -14.77416,-0.60847 -22.41461,-0.60847c-3.78666,0 -7.87741,0.0337 -12.27254,0.10146c-4.32736,0.13519 -8.58715,0.27035 -12.77935,0.40554c-4.19217,0.20294 -7.91108,0.37183 -11.15663,0.50699c-3.2456,0.20294 -5.61214,0.37215 -7.09967,0.50733l-0.00003,0.00005zm92.31406,0c-0.54104,-1.35245 -0.9803,-3.07673 -1.3184,-5.17282c-0.33813,-2.16352 -0.54104,-4.42884 -0.60847,-6.7953c0,-2.36646 0.06744,-4.59773 0.2026,-6.69385c0.20294,-2.16386 0.54104,-3.92185 1.01435,-5.2743c1.01435,-0.40554 1.99463,-1.04806 2.94123,-1.92688c0.94657,-0.87916 1.72428,-2.19757 2.33276,-3.95555c0.67623,-1.75799 1.01435,-4.15849 1.01435,-7.20118c0,-2.97493 -0.40588,-5.27396 -1.21726,-6.89678c-0.74366,-1.69058 -1.62248,-2.9075 -2.63681,-3.65116c-0.94657,-0.81141 -1.75799,-1.38616 -2.43421,-1.72428c-0.60847,-1.14951 -1.04806,-2.77234 -1.3184,-4.86842c-0.27069,-2.16352 -0.40588,-4.49628 -0.40588,-6.99824c0.06775,-2.50165 0.27035,-4.90213 0.60847,-7.20118c0.33813,-2.29871 0.84546,-4.1922 1.52134,-5.67949c0.74398,0.06744 1.38616,0.16889 1.92722,0.30408c0.54104,0.06775 1.14951,0.13519 1.82574,0.20294c-0.27069,4.1922 0.57477,7.80965 2.53535,10.85234c1.96093,2.97525 4.63178,5.10507 8.01259,6.38977c3.44856,1.2847 7.0997,1.55505 10.9538,0.81141c-3.24562,-0.13519 -6.25458,-0.98062 -9.0266,-2.53567c-2.7049,-1.6228 -4.90213,-3.75262 -6.59271,-6.38977c-1.6228,-2.70456 -2.43421,-5.71354 -2.43421,-9.0266c0,-2.77234 0.64252,-5.44319 1.92722,-8.01259c1.35211,-2.63702 3.58341,-4.80075 6.69385,-6.49114c3.11044,-1.75801 7.30264,-2.63702 12.57662,-2.63702c8.45215,0 14.60496,2.12987 18.45905,6.38971c3.92185,4.1922 5.88278,10.41292 5.88278,18.66215c0,3.8541 -0.33813,7.40378 -1.01435,10.6494c-0.60847,3.17787 -1.25065,6.25458 -1.92688,9.22951c-0.60879,2.9075 -0.91287,5.88278 -0.91287,8.92546c0,2.9075 0.30408,5.24025 0.91287,6.99824c0.67623,1.75799 1.4873,3.07639 2.43421,3.95555c1.01401,0.81141 1.99463,1.41989 2.94123,1.82542c0.47329,1.35245 0.77768,3.11044 0.91287,5.2743c0.2026,2.09611 0.27035,4.32739 0.2026,6.69385c0,2.36646 -0.16889,4.63178 -0.50699,6.7953c-0.33813,2.09611 -0.77768,3.82037 -1.3184,5.17282c-1.89317,-0.20294 -4.36143,-0.43958 -7.40412,-0.70993c-2.97493,-0.20294 -6.22056,-0.40588 -9.73653,-0.60879c-3.51597,-0.13519 -7.03229,-0.2026 -10.54826,-0.2026c-3.24562,0 -6.55866,0.06744 -9.93947,0.2026c-3.31338,0.20294 -6.42347,0.40588 -9.331,0.60879c-2.9075,0.27035 -5.30801,0.50699 -7.20118,0.70993l-0.00008,-0.00003zm59.51281,0c-0.67588,-2.16386 -1.18322,-4.73324 -1.52134,-7.70817c-0.27035,-2.97525 -0.33813,-5.95018 -0.2026,-8.92546c0.13519,-2.97493 0.47329,-5.44319 1.01401,-7.40378c1.55539,-0.40588 2.97525,-1.45391 4.25995,-3.14414c1.2847,-1.75833 1.92688,-4.66549 1.92688,-8.72252c0,-3.44856 -0.37183,-6.11942 -1.11547,-8.01259c-0.67623,-1.96093 -1.45391,-3.34708 -2.33276,-4.15849c-0.87916,-0.81141 -1.65653,-1.25065 -2.33276,-1.3184c-0.67623,-2.23127 -1.14951,-4.86842 -1.41989,-7.91111c-0.20294,-3.11044 -0.16923,-6.18683 0.10114,-9.22951c0.33813,-3.04269 0.91287,-5.54465 1.72428,-7.50526c3.17787,0.40554 6.7616,0.74366 10.75086,1.01401c3.9896,0.20294 8.08034,0.3044 12.27254,0.3044c4.1922,0 8.31664,-0.0337 12.37368,-0.10146c4.05701,-0.13519 7.40378,-0.27035 10.04093,-0.40588c-0.87882,0.94692 -1.82574,2.56972 -2.83975,4.86842c-0.94657,2.23127 -1.72428,4.59808 -2.33276,7.0997c-0.54104,2.50196 -0.70993,4.69922 -0.50733,6.59271c1.82574,-6.01794 5.30801,-10.85234 10.4468,-14.50382c5.1388,-3.71891 12.13704,-5.57835 20.99472,-5.57835c3.8541,0 7.13343,0.33813 9.83833,1.01435c2.772,0.60847 5.03732,1.75799 6.7953,3.44856c1.82542,1.69023 3.24562,4.15815 4.25963,7.40378c0.94692,2.77234 1.38616,5.61208 1.31875,8.51958c-0.06775,2.84009 -0.27069,5.71354 -0.60879,8.62104c-0.33778,2.84009 -0.50699,5.67984 -0.50699,8.51958c0,3.11044 0.3044,5.57835 0.91287,7.40412c0.60847,1.75799 1.38616,3.07639 2.33276,3.95555c1.01435,0.87882 1.99463,1.48764 2.94123,1.82574c0.60847,1.96058 0.94657,4.42884 1.01435,7.40378c0.13519,2.97525 0.06744,5.95018 -0.20294,8.92546c-0.27035,2.97493 -0.74366,5.54433 -1.41989,7.70817c-2.5694,-0.27069 -5.67984,-0.60847 -9.331,-1.01435c-3.65116,-0.33813 -8.24924,-0.50699 -13.79354,-0.50699c-5.00361,0 -9.6691,0.16889 -13.99682,0.50699c-4.25963,0.40588 -7.60671,0.74366 -10.04093,1.01435c-0.33813,-1.82574 -0.60847,-4.2259 -0.81141,-7.20118c-0.2026,-3.04269 -0.27035,-6.18683 -0.2026,-9.43245c0.13519,-3.24562 0.40554,-6.05167 0.81141,-8.41813l0,-13.99648l-3.75296,0l0,13.99648c0.47329,2.36646 0.74398,5.1725 0.81141,8.41813c0.13519,3.24562 0.10146,6.38977 -0.10146,9.43245c-0.2026,2.97525 -0.54072,5.37544 -1.01401,7.20118c-1.6228,-0.20294 -3.41483,-0.43958 -5.37544,-0.70993c-1.89349,-0.20294 -4.22625,-0.40588 -6.99824,-0.60879c-2.77234,-0.13519 -6.22088,-0.2026 -10.34532,-0.2026c-5.07136,0 -9.63539,0.16889 -13.6924,0.50699c-3.98926,0.33813 -7.37007,0.67623 -10.14238,1.01435l-0.00008,-0.00003zm103.71637,0c-0.54072,-1.35245 -0.9803,-3.07673 -1.3184,-5.17282c-0.33813,-2.16352 -0.54104,-4.42884 -0.60847,-6.7953c0,-2.36646 0.06744,-4.59773 0.20294,-6.69385c0.2026,-2.16386 0.54072,-3.92185 1.01401,-5.2743c1.01435,-0.40554 1.99463,-1.08176 2.94123,-2.02833c0.94692,-1.01435 1.72428,-2.70456 2.33307,-5.07102c0.60847,-2.43421 0.91255,-5.91648 0.91255,-10.4468c0,-4.66549 -0.37183,-8.14775 -1.11547,-10.4468c-0.67623,-2.29902 -1.52134,-3.8878 -2.53567,-4.76697c-0.94657,-0.94657 -1.79169,-1.58878 -2.53567,-1.92688c-0.60847,-1.14951 -1.04806,-2.77234 -1.3184,-4.86842c-0.27035,-2.16386 -0.40588,-4.49659 -0.40588,-6.99824c0.06775,-2.50165 0.27069,-4.90213 0.60879,-7.20118c0.33813,-2.29887 0.84512,-4.19215 1.52134,-5.6797c1.96093,0.13524 4.39479,0.33813 7.30232,0.60858c2.9075,0.27045 6.05167,0.5071 9.43245,0.70998c3.44856,0.13521 6.79564,0.20283 10.04093,0.20283c4.80101,0 9.1621,-0.13524 13.08396,-0.40569c3.98926,-0.33807 7.40378,-0.64234 10.24387,-0.91282c0.60847,1.89323 1.04806,3.71889 1.3184,5.47685c0.27035,1.69058 0.40554,3.41452 0.40554,5.17282c0,2.50165 -0.33778,5.37544 -1.01401,8.62104c-0.60847,3.24528 -1.25099,6.49091 -1.92722,9.73653c-0.67623,3.24562 -1.01435,6.15312 -1.01435,8.72252l0,1.82574c2.23162,-3.24562 3.88812,-7.33637 4.96991,-12.27254c1.14951,-5.00361 1.65653,-11.15639 1.52134,-18.45905c1.89317,0.13519 3.92185,0.33813 6.08537,0.60847c2.23162,0.27035 4.96991,0.50699 8.2155,0.70993c3.24562,0.20294 7.301,0.3044 12.16943,0.3044c3.98926,0 7.27125,-0.10146 9.83931,-0.3044c2.56808,-0.20294 4.80233,-0.40554 6.69284,-0.60847c1.96324,-0.27035 4.05867,-0.50699 6.28963,-0.70993c0.54204,1.41989 0.98162,3.21158 1.31875,5.37544c0.33712,2.09611 0.50567,4.32739 0.50567,6.69385c0.06941,2.3668 0,4.63178 -0.20162,6.79564c-0.1355,2.09611 -0.43958,3.8541 -0.91221,5.27396c-3.38113,0.94657 -6.28963,1.99463 -8.72218,3.14414c-2.36646,1.14951 -4.49825,2.40051 -6.39209,3.75262c1.69221,5.1388 4.02563,9.22951 7.00022,12.27254c3.04071,2.97493 6.25326,5.34139 9.63439,7.09938c0.47263,1.35245 0.77671,3.07673 0.91221,5.17282c0.20492,2.09611 0.27101,4.32739 0.20492,6.69385c0,2.29902 -0.16855,4.53032 -0.50899,6.69416c-0.33712,2.16352 -0.77671,3.95555 -1.31875,5.37544c-2.76968,-0.27069 -5.84675,-0.60847 -9.22788,-1.01435c-3.38113,-0.40554 -7.57201,-0.60847 -12.57594,-0.60847c-5.54597,0 -10.07729,0.10146 -13.59226,0.30408c-3.51597,0.20294 -6.42347,0.40588 -8.72218,0.60879c-2.23162,0.27035 -4.29368,0.50699 -6.18683,0.70993c0.2026,-2.43421 0.37183,-4.66549 0.50699,-6.69416c0.13519,-2.09611 0.20294,-4.02299 0.20294,-5.78098c0,-2.84009 -0.1355,-5.44319 -0.40588,-7.80965c-0.27035,-2.3668 -0.94657,-4.59808 -2.02833,-6.69416c-1.0821,-2.09611 -2.84009,-4.12445 -5.2743,-6.08537l0,9.12806l3.65148,0c0.47329,1.35245 0.77737,3.11044 0.91287,5.2743c0.2026,2.09611 0.27035,4.32739 0.2026,6.69385c0,2.36646 -0.16889,4.63178 -0.50699,6.7953c-0.33813,2.09611 -0.77768,3.82037 -1.3184,5.17282c-2.84009,-0.27069 -6.38977,-0.60847 -10.64972,-1.01435c-4.1922,-0.33813 -8.65477,-0.50699 -13.38801,-0.50699c-3.24528,0 -6.55866,0.06744 -9.93947,0.2026c-3.31303,0.20294 -6.42347,0.40588 -9.331,0.60879c-2.9075,0.27035 -5.30769,0.50699 -7.20118,0.70993l0,0.00005zm155.40334,0c-0.53875,-1.35245 -0.9783,-3.07673 -1.31875,-5.17282c-0.33712,-2.16352 -0.53875,-4.42884 -0.60813,-6.7953c0,-2.36646 0.06941,-4.59773 0.20492,-6.69385c0.20162,-2.16386 0.53875,-3.92185 1.01467,-5.2743c1.01137,-0.40554 1.99297,-1.08176 2.94155,-2.02833c0.94526,-1.01435 1.72196,-2.73829 2.33009,-5.1725c0.60813,-2.43421 0.9155,-5.91648 0.9155,-10.4468c0,-4.66549 -0.37346,-8.14775 -1.11713,-10.4468c-0.67754,-2.36646 -1.52034,-3.98926 -2.53501,-4.86811c-0.94858,-0.94692 -1.79137,-1.58909 -2.53501,-1.92722c-0.61145,-1.14951 -1.05103,-2.77234 -1.31875,-4.86842c-0.27101,-2.16352 -0.40654,-4.46257 -0.40654,-6.89678c0.06609,-2.50165 0.27101,-4.86842 0.60813,-7.0997c0.33712,-2.29887 0.84612,-4.19215 1.52034,-5.6797c1.96324,0.20286 4.3958,0.4395 7.3043,0.70998c2.9085,0.20286 6.05167,0.40569 9.4328,0.60858c3.44722,0.13521 6.7953,0.20283 10.04093,0.20283c4.79901,0 9.16176,-0.13524 13.08164,-0.40569c3.98926,-0.33807 7.40346,-0.64234 10.24584,-0.91282c0.60813,1.89323 1.04771,3.71889 1.31875,5.47685c0.26771,1.69058 0.40322,3.41452 0.40322,5.17282c0,3.17787 -0.33712,6.32202 -1.01137,9.43245c-0.61145,3.04269 -1.25263,6.35572 -1.93017,9.93947c-0.60813,3.51597 -0.91221,7.64042 -0.91221,12.37368c0,4.25995 0.30408,7.53928 0.91221,9.83799c0.61145,2.29902 1.38816,3.95555 2.33341,4.96991c0.94858,0.94657 1.92688,1.6228 2.94155,2.02833c0.60813,2.09611 0.98162,4.69953 1.11713,7.80965c0.1355,3.04303 0.03305,6.05167 -0.30408,9.02692c-0.27101,2.9075 -0.78,5.27396 -1.52366,7.0997c-1.89051,-0.20294 -4.32638,-0.43958 -7.301,-0.70993c-2.97459,-0.20294 -6.15412,-0.40588 -9.53525,-0.60879c-3.38113,-0.13519 -6.6598,-0.2026 -9.83601,-0.2026c-3.24562,0 -6.56063,0.06744 -9.94176,0.2026c-3.31172,0.20294 -6.42184,0.40588 -9.33034,0.60879c-2.9085,0.27035 -5.30801,0.50699 -7.20184,0.70993l0.00005,0zm100.97444,1.82542c-30.90278,0 -46.35088,-12.57628 -46.35088,-37.72949c0,-13.72613 3.8868,-23.80076 11.66373,-30.22458c7.84302,-6.42347 19.57286,-9.63505 35.19282,-9.63505c16.56522,0 28.60244,3.17787 36.10833,9.53394c7.57201,6.28797 11.35967,15.58526 11.35967,27.89151c0,13.86129 -3.98926,24.03741 -11.9678,30.52866c-7.97855,6.42347 -19.98269,9.63505 -36.00587,9.63505l0,-0.00003zm-1.92688,-33.26692l5.47658,0l0,-11.05528l-5.47658,0l0,11.05528zm80.65131,47.26375c-9.12872,0 -16.19505,-1.75833 -21.19898,-5.2743c-5.00393,-3.51597 -7.50592,-9.331 -7.50592,-17.4447c0,-3.38079 0.6445,-6.7616 1.93017,-10.14238c1.35179,-3.38079 3.34476,-6.32236 5.98226,-8.82398c3.44722,2.43421 7.84302,4.32739 13.18409,5.67984l0.81305,-2.84009c-5.817,-1.48764 -10.31193,-3.51597 -13.49147,-6.08537c-3.17621,-2.5694 -5.3741,-5.5106 -6.59039,-8.82398c-1.21629,-3.31303 -1.82771,-6.7616 -1.82771,-10.34501c0,-4.86842 1.18322,-9.33131 3.553,-13.38801c2.36646,-4.12479 5.98226,-7.43782 10.85068,-9.93979c4.86842,-2.50165 11.05559,-3.75262 18.56151,-3.75262c3.98926,0 7.26793,0.43958 9.83601,1.31875c2.57138,0.87882 4.63376,1.99463 6.18717,3.34676c1.55671,1.2847 2.67054,2.67086 3.34808,4.15849c0.67754,-5.4769 2.19791,-9.97349 4.56435,-13.48941c2.43255,-3.51605 5.44351,-6.11926 9.02626,-7.80965c3.58275,-1.75801 7.47285,-2.63705 11.66373,-2.63705c3.51663,0 6.69284,0.7776 9.53525,2.33276c2.83909,1.48756 5.07005,3.65129 6.69284,6.49114c1.68892,2.83988 2.53501,6.28823 2.53501,10.34527c0,3.98926 -0.74366,7.30264 -2.23096,9.93947c-1.4212,2.63715 -3.34808,4.63178 -5.78063,5.98423c-2.43587,1.2847 -5.13946,1.92688 -8.11405,1.92688c-2.70358,0 -5.13946,-0.20294 -7.3043,-0.60847c-2.16154,-0.47329 -4.05538,-1.08176 -5.67818,-1.82574l-1.4212,2.53567c1.21958,0.67623 2.63747,1.21695 4.26029,1.6228c2.57138,0.74366 5.13946,1.21695 7.70751,1.41989c2.57138,0.20294 4.97088,0.37183 7.20184,0.50699c2.23096,0.06775 4.19417,0.37215 5.88309,0.91287c1.75833,0.54104 3.11012,1.52134 4.05867,2.94155c1.01137,1.41989 1.52034,3.54968 1.52034,6.38945c0,4.3277 -1.72526,7.94516 -5.1725,10.85266c-3.38113,2.83975 -8.01159,5.00327 -13.89468,6.49091c-5.88309,1.41989 -12.57926,2.29902 -20.08185,2.63715l0.09916,2.94123c4.93784,-0.06775 9.4328,-0.0337 13.49147,0.10146c4.12479,0.13519 7.77363,0.67623 10.95314,1.6228c3.17621,0.94657 5.85005,2.53567 8.01159,4.76697c2.16484,2.23127 3.78766,5.34171 4.86842,9.331c1.15017,4.05701 1.72526,9.22951 1.72526,15.51782c-3.71825,0.87916 -7.70751,1.3184 -11.9678,1.3184c-4.19417,0.06775 -8.24955,-0.30408 -12.17272,-1.11547c-1.41788,-1.01435 -3.41417,-1.55539 -5.98226,-1.6228c-2.50196,-0.06775 -5.57904,0.10146 -9.23117,0.50699c-3.64884,0.47329 -7.84302,0.91287 -12.57594,1.3184c-4.73292,0.47363 -10.00788,0.71027 -15.82156,0.71027l0.00003,-0.00005zm16.83623,-61.76724l5.3741,0l0,-7.80965l-5.3741,0l0,7.80965z" fill="#1340A2"/>
   <path stroke="null" id="svg_3" d="m22.15081,0.20495l7.56539,12.40773l14.13596,3.36097l-9.46252,11.02916l1.17331,14.48466l-13.41215,-5.59127l-13.41544,5.59127l1.17331,-14.48466l-9.46252,-11.02916l14.13926,-3.36097l7.56539,-12.40773z" fill="#1340A2"/>
   <path stroke="null" id="svg_4" d="m150.42546,-11.29982l5.04359,8.27171l9.42618,2.24052l-6.30945,7.35289l0.78,9.65655l-8.94032,-3.7275l-8.94362,3.7275l0.78332,-9.65655l-6.30945,-7.35289l9.42618,-2.24052l5.04359,-8.27171l-0.00003,0z" fill="white"/>
   <path stroke="null" id="svg_5" d="m-162.8161,-7.40177l5.04327,8.27171l9.42552,2.24052l-6.30847,7.35289l0.78198,9.65655l-8.9423,-3.7275l-8.94264,3.7275l0.78198,-9.65655l-6.30847,-7.35289l9.42552,-2.24052l5.04359,-8.27171l0.00003,0z" fill="white"/>
   <path stroke="null" id="svg_6" d="m-253.05091,-21.21515l2.52181,4.13602l4.71276,1.1201l-3.15408,3.67627l0.39067,4.82845l-4.47116,-1.86376l-4.47116,1.86376l0.39099,-4.82845l-3.15439,-3.67627l4.71276,-1.1201l2.52181,-4.13602z" fill="white"/>
   <path stroke="null" id="svg_7" d="m248.32947,-21.21515l3.28858,5.39096l6.1409,1.46021l-4.11156,4.79242l0.50899,6.29358l-5.82691,-2.42957l-5.82691,2.42957l0.50899,-6.29358l-4.11156,-4.79242l6.1409,-1.46021l3.28858,-5.39096z" fill="white"/>
  </g>
 </g>

</svg>